<svg xmlns="http://www.w3.org/2000/svg" xmlns:xlink="http://www.w3.org/1999/xlink" viewBox="0 0 35 35"><g><defs><path d="M 19.967 7.868 L 17.241 9.462 L 17.241 25.815 C 14.13 25.348 11.788 23.313 11.788 20.867 C 11.788 18.548 13.895 16.596 16.764 16 L 16.764 13.921 C 12.375 14.557 9.062 17.426 9.062 20.867 C 9.062 24.432 12.617 27.377 17.241 27.868 L 19.967 26.327 Z M 20.444 13.921 L 20.444 16 C 21.512 16.222 22.475 16.626 23.262 17.172 L 21.785 18.174 L 27.062 19.551 L 26.681 14.861 L 25.278 15.809 C 23.975 14.863 22.306 14.191 20.444 13.921 Z" id="a1004z"></path><filter id="a1006z" x="-23.2%" y="-25.9%" width="145.9%" height="151.2%" filterUnits="objectBoundingBox"><feOffset dx="0" dy="1" in="SourceAlpha" result="a1008z"></feOffset><feGaussianBlur stdDeviation="1" in="a1008z" result="a1009z"></feGaussianBlur><feColorMatrix color-interpolation-filters="sRGB" values="0 0 0 0 0   0 0 0 0 0   0 0 0 0 0  0 0 0 0.25 0" type="matrix" in="a1009z" result="a1010z"></feColorMatrix></filter><linearGradient id="idss1897719811_1g1968463829" x1="0.49843824662000724" x2="0.5015297460532884" y1="0.18608757062146886" y2="0.8074789567109482"><stop offset="0" stop-color="rgb(5, 5, 5)" stop-opacity="1"></stop><stop offset="0.5559200990602714" stop-color="rgb(59, 59, 59)" stop-opacity="1"></stop><stop offset="1" stop-color="rgb(0, 0, 0)" stop-opacity="1"></stop></linearGradient></defs><g filter="url(#a1006z)"><use fill="black" fill-opacity="1" stroke="black" stroke-opacity="0" stroke-width="0" xlink:href="#a1004z" clip-path="url(#a1005z)"></use></g><use xlink:href="#a1004z" fill="url(#idss1897719811_1g1968463829)" clip-path="url(#a1005z)"></use></g></svg>